<svg xmlns="http://www.w3.org/2000/svg" xmlns:xlink="http://www.w3.org/1999/xlink" width="70" height="70" viewBox="0 0 70 70">
  <defs>
    <filter id="Ellipse_2314" x="0" y="0" width="70" height="70" filterUnits="userSpaceOnUse">
      <feOffset dy="3" input="SourceAlpha"/>
      <feGaussianBlur stdDeviation="5" result="blur"/>
      <feFlood flood-opacity="0.071"/>
      <feComposite operator="in" in2="blur"/>
      <feComposite in="SourceGraphic"/>
    </filter>
  </defs>
  <g id="Component_605_1" data-name="Component 605 – 1" transform="translate(15 12)">
    <g transform="matrix(1, 0, 0, 1, -15, -12)" filter="url(#Ellipse_2314)">
      <circle id="Ellipse_2314-2" data-name="Ellipse 2314" cx="20" cy="20" r="20" transform="translate(15 12)" fill="#f8737e"/>
    </g>
    <g id="Iconly_Bold_Edit" data-name="Iconly/Bold/Edit" transform="translate(11 11)">
      <g id="Edit" transform="translate(0 0)">
        <path id="Edit-2" data-name="Edit" d="M11.28,18a1.023,1.023,0,0,1,0-2.047h5.71a1.023,1.023,0,0,1,0,2.047ZM.848,17.576l-.8-3.451a2.132,2.132,0,0,1,.4-1.8L6.684,4.268a.313.313,0,0,1,.424-.054L9.73,6.3a.846.846,0,0,0,.647.183.945.945,0,0,0,.817-1.043,1.053,1.053,0,0,0-.329-.635L8.319,2.763a.378.378,0,0,1-.064-.526L9.241.957A2.584,2.584,0,0,1,13.03.7l1.475,1.172a3.062,3.062,0,0,1,1.146,1.752,2.4,2.4,0,0,1-.488,2.042L6.377,17.028a2.105,2.105,0,0,1-1.634.817l-3.5.042A.4.4,0,0,1,.848,17.576Z" fill="#200e32"/>
      </g>
    </g>
  </g>
</svg>
