<svg id="Component_608_1" data-name="Component 608 – 1" xmlns="http://www.w3.org/2000/svg" width="57" height="57" viewBox="0 0 57 57">
  <circle id="Ellipse_2301" data-name="Ellipse 2301" cx="28.5" cy="28.5" r="28.5" fill="#ff7783"/>
  <g id="tools-icon" transform="translate(15 17)">
    <path id="Path_23276" data-name="Path 23276" d="M14.179,2.673a4.978,4.978,0,0,0-1.822-.349,3.177,3.177,0,0,0-2.324.9L4.792,8.46l.545.55-1.99,2L0,7.661l1.989-1.99.617.6L7.819,1.066A3.242,3.242,0,0,1,10.129,0Q12.2,0,14.179,2.673Zm7.954-1.483a4.912,4.912,0,0,1,1.626.275l-1.293,1.4c-2.938,3.178.378,5.017,3.3,2.835l1.127-.841a4.921,4.921,0,0,1-7.2,5.525l-2.389,2.536,6.747,6.457L21,22.429q-3.191-3.328-6.381-6.658l-4.189,4.447a1.834,1.834,0,1,1-3.008-2.079l0,0,.016-.014a1.845,1.845,0,0,1,.469-.4l4.712-4.039L6.812,7.6l2.411-2.41c2.236,2.148,4.051,3.871,6.29,6.016l2.612-2.239a4.92,4.92,0,0,1,4.009-7.772ZM6.3,2.281l-2.4,2.4-.459-.459,2.4-2.4.459.459Z" transform="translate(0)" fill="#fff" fill-rule="evenodd"/>
  </g>
</svg>
