<svg id="customers" xmlns="http://www.w3.org/2000/svg" width="45" height="36.975" viewBox="0 0 45 36.975">
  <path id="Path_23277" data-name="Path 23277" d="M297.984,305.037c0,5.592,4.1,10.125,9.15,10.125s9.15-4.533,9.15-10.125-4.1-10.125-9.15-10.125S297.984,299.445,297.984,305.037Z" transform="translate(-290.409 -292.287)" fill="#ff7783"/>
  <path id="Path_23278" data-name="Path 23278" d="M219.76,283.147a12.573,12.573,0,0,1-8.475,3.375,12.163,12.163,0,0,1-8.475-3.45c-4.125,1.875-8.25,4.275-8.25,8.025v1.575a3.361,3.361,0,0,0,3.375,3.375H224.71a3.361,3.361,0,0,0,3.375-3.375V291.1C228.01,287.347,223.96,285.022,219.76,283.147Zm11.55-7.5c-.15-.075-.225-.15-.375-.225a.922.922,0,0,0-.975.075,10.325,10.325,0,0,1-5.4,1.575h-.75a15.657,15.657,0,0,1-1.275,2.775,10.984,10.984,0,0,1,1.05.45c4.275,1.875,7.275,4.2,9.375,7.35h3.6a3.009,3.009,0,0,0,3-3v-1.425C239.56,279.547,235.285,277.3,231.31,275.647Zm-.825-9.9c0-3.675-2.7-6.675-5.925-6.675a5.914,5.914,0,0,0-4.2,1.875,15.442,15.442,0,0,1,4.275,10.8v.6C227.86,272.347,230.485,269.422,230.485,265.747Z" transform="translate(-194.56 -259.072)" fill="#ff7783"/>
</svg>
