<svg xmlns="http://www.w3.org/2000/svg" width="30" height="30" viewBox="0 0 30 30">
  <g id="Group_11787" data-name="Group 11787" transform="translate(-991 -44)">
    <path id="Path_23279" data-name="Path 23279" d="M15,0A15,15,0,1,1,0,15,15,15,0,0,1,15,0Z" transform="translate(991 44)" fill="#ff7783" opacity="0.2"/>
    <g id="Iconly_Bold_Calendar" data-name="Iconly/Bold/Calendar" transform="translate(999 51)">
      <g id="Calendar" transform="translate(0 0)">
        <path id="Calendar-2" data-name="Calendar" d="M4.007,16H4A3.945,3.945,0,0,1,1.09,14.9,4.178,4.178,0,0,1,.008,11.9L0,5.242a4.143,4.143,0,0,1,.948-2.8A3.8,3.8,0,0,1,3.5,1.224v-.6A.627.627,0,0,1,3.675.182.578.578,0,0,1,4.094.008a.591.591,0,0,1,.592.615v.56l4.562-.006V.616A.625.625,0,0,1,9.418.175.58.58,0,0,1,9.838,0a.591.591,0,0,1,.592.615v.6A3.816,3.816,0,0,1,13.014,2.4a4.063,4.063,0,0,1,.977,2.788L14,11.933a3.735,3.735,0,0,1-3.989,4.059Zm6.138-4.646a.658.658,0,0,0-.629.681.646.646,0,1,0,.637-.681Zm-6.32,0h0a.673.673,0,0,0-.629.688.649.649,0,0,0,.631.639h.03a.622.622,0,0,0,.439-.212.668.668,0,0,0,.167-.476.641.641,0,0,0-.637-.639Zm3.164,0h0a.676.676,0,0,0-.629.689.649.649,0,0,0,.633.639H7.02a.652.652,0,0,0,.606-.689.641.641,0,0,0-.637-.639ZM3.821,8.475h0a.673.673,0,0,0-.629.688.648.648,0,0,0,.631.639h.03a.62.62,0,0,0,.438-.212.669.669,0,0,0,.167-.476.64.64,0,0,0-.636-.639Zm3.165-.028h0a.673.673,0,0,0-.629.688.649.649,0,0,0,.634.64h.028a.653.653,0,0,0,.605-.689.641.641,0,0,0-.636-.639Zm3.166.005h0a.653.653,0,0,0-.629.671v.009a.641.641,0,0,0,.638.639h.015a.661.661,0,0,0-.022-1.319ZM3.506,2.447c-1.544.16-2.326,1.1-2.324,2.794v.248L12.81,5.473v-.28c-.033-1.69-.833-2.617-2.377-2.755v.616a.6.6,0,0,1-.59.616.578.578,0,0,1-.424-.179.628.628,0,0,1-.168-.436V2.408l-4.562.006v.647a.591.591,0,0,1-.591.616A.578.578,0,0,1,3.675,3.5a.628.628,0,0,1-.168-.436V2.447Z" transform="translate(0 0)" fill="#ff7783"/>
      </g>
    </g>
  </g>
</svg>
