<svg xmlns="http://www.w3.org/2000/svg" width="496.36" height="372.438" viewBox="0 0 496.36 372.438">
  <g id="Group_11810" data-name="Group 11810" transform="translate(-40.24 -70.381)">
    <path id="Path_23282" data-name="Path 23282" d="M69.925,327.843v-4.2L66.3,322.9a10.28,10.28,0,0,0-.9-2.179l2.038-3.087-2.969-2.969-3.087,2.038a10.255,10.255,0,0,0-2.179-.9l-.742-3.629h-4.2l-.742,3.629a10.279,10.279,0,0,0-2.179.9l-3.087-2.038-2.969,2.969,2.039,3.087a10.224,10.224,0,0,0-.9,2.179l-3.629.742v4.2l3.629.742a10.223,10.223,0,0,0,.9,2.179l-2.039,3.087,2.969,2.969,3.087-2.038a10.276,10.276,0,0,0,2.179.9l.742,3.629h4.2l.742-3.629a10.252,10.252,0,0,0,2.179-.9l3.087,2.038,2.969-2.969L65.4,330.764a10.278,10.278,0,0,0,.9-2.179ZM56.361,330.3a4.557,4.557,0,1,1,4.557-4.557A4.556,4.556,0,0,1,56.361,330.3Z" transform="translate(0.324 30.621)" fill="#819699"/>
    <rect id="Rectangle_4034" data-name="Rectangle 4034" width="46.664" height="42.571" transform="translate(47.681 374.675)" fill="#eddba2"/>
    <path id="Path_23283" data-name="Path 23283" d="M59.233,341.274l16.551,30.4,16.31-27.78-15.9,21.771Z" transform="translate(2.405 34.306)" fill="#e0c780"/>
    <rect id="Rectangle_4035" data-name="Rectangle 4035" width="20.919" height="42.571" transform="translate(40.368 374.675)" fill="#e0c780"/>
    <path id="Path_23284" data-name="Path 23284" d="M272.912,336.023l-49.185-1.28-8.753,43.418h65.139Z" transform="translate(22.128 33.478)" fill="#ddd1b3"/>
    <path id="Path_23285" data-name="Path 23285" d="M272.209,334.181l-49.065,1.66-5.195,25.768L276.3,358.1Z" transform="translate(22.505 33.407)" fill="#ccbe9e"/>
    <rect id="Rectangle_4036" data-name="Rectangle 4036" width="108.304" height="8.246" transform="translate(215.52 410.534)" fill="#ede6d1"/>
    <path id="Path_23286" data-name="Path 23286" d="M422.024,129.261H104.564c-7.708,0-13.958,5.954-13.958,13.3V358.424c0,7.345,6.249,13.3,13.958,13.3h317.46c7.708,0,13.958-5.954,13.958-13.3V142.56C435.982,135.215,429.732,129.261,422.024,129.261Z" transform="translate(6.378 7.456)" fill="#ede6d1"/>
    <path id="Path_23287" data-name="Path 23287" d="M146.979,371.723h139.8l48.253-242.461h-139.8Z" transform="translate(13.517 7.457)" fill="#f4eedf"/>
    <path id="Path_23288" data-name="Path 23288" d="M422.024,343.013H104.564a13.958,13.958,0,0,1-13.958-13.958v3.408c0,7.708,6.249,13.958,15.175,14.742H423.24a15.162,15.162,0,0,0,12.741-14.742v-3.408A13.958,13.958,0,0,1,422.024,343.013Z" transform="translate(6.378 32.758)" fill="#e0d4b6"/>
    <path id="Path_23289" data-name="Path 23289" d="M422.024,129.261H104.564c-7.708,0-13.958,5.954-13.958,13.3v190.2H435.982V142.56C435.982,135.215,429.732,129.261,422.024,129.261Z" transform="translate(6.378 7.456)" fill="#514c4d"/>
    <rect id="Rectangle_4037" data-name="Rectangle 4037" width="321.355" height="193.598" transform="translate(108.994 146.614)" fill="#443c3c"/>
    <path id="Path_23391" data-name="Path 23391" d="M0,0H312.887V190.413H0Z" transform="translate(113.02 149.799)" fill="#ff7783"/>
    <path id="Path_23290" data-name="Path 23290" d="M265.547,326.143H227.163c-1.546,0-2.8.8-2.8,1.8s1.253,1.8,2.8,1.8h38.385c1.546,0,2.8-.806,2.8-1.8S267.093,326.143,265.547,326.143Z" transform="translate(23.317 32.389)" fill="#ccbe9e"/>
    <path id="Path_23291" data-name="Path 23291" d="M422.024,129.261H104.564a13.958,13.958,0,0,0-13.958,13.958v2.921a13.958,13.958,0,0,1,13.958-13.958h317.46a13.958,13.958,0,0,1,13.958,13.958v-2.921A13.958,13.958,0,0,0,422.024,129.261Z" transform="translate(6.378 7.456)" fill="#f4eee1" style="mix-blend-mode: overlay;isolation: isolate"/>
    <path id="Path_23292" data-name="Path 23292" d="M403.029,239.325l.372-.548c.5-.744,1.024-1.519,1.558-2.316q.4-.6.81-1.213c.545-.819,1.1-1.658,1.661-2.51,2.8-4.26,5.71-8.84,8.044-12.854q.7-1.2,1.326-2.334c.623-1.125,1.182-2.185,1.658-3.153s.869-1.845,1.16-2.608a9.193,9.193,0,0,0,.552-1.92,1.059,1.059,0,0,0-.072-.46c-.009-.026-.015-.05-.025-.077a3.223,3.223,0,0,0-.3-.559l-.057-.083a11.042,11.042,0,0,0-1.29-1.5h0c-4.219-4.24-14.733-11.055-16.171-10.7-1.4.344-14.61,19.1-20.444,27.893l-.01.015q-.34.512-.644.978l-.087.132c-.212.323-.415.634-.6.918a7.486,7.486,0,0,0-1.032,5.62,10.94,10.94,0,0,0,.438,1.616,14.112,14.112,0,0,0,.675,1.585c.258.521.548,1.033.86,1.534s.647.991,1,1.467c.524.713,1.079,1.393,1.64,2.03s1.126,1.229,1.669,1.768q.27.27.533.521c.349.335.684.644,1,.924q.235.211.451.4c1.006.878,1.685,1.383,1.685,1.383.279.181.566.35.858.5.181.1.37.174.555.257l-34.251,27.255a28.639,28.639,0,0,1-3.576-2.237,36.671,36.671,0,0,0,2.134-4.094s-23.014-26.891-63.275-55.731c-1.086-.812-2.19-1.592-3.319-2.355l0,0q-1.386-.935-2.8-1.818c-.061-.038-.122-.074-.182-.112q-1.271-.791-2.56-1.54l-.424-.244c-.508-.293-1.015-.581-1.525-.865a21.393,21.393,0,0,0,9.978-13.882s-18.183-20.058-20.49-28.925c-1.349-5.179-2.861-13.1-6.07-19.423.03.023.064.041.1.062a62.66,62.66,0,0,0,5.436-12.852H201.1c-.585.274-1.158.543-1.711.807a15.894,15.894,0,0,0-5.753,4.113,7.515,7.515,0,0,0-1.344,2.544,10.834,10.834,0,0,0,.486,6.6c1.291,3.828,4.164,8.653,8.671,14.9l-.032.118a67.436,67.436,0,0,0,22.3,25.248l1.366,10.721c-.411-.248-.647-.394-.647-.394l-4.6,6.95.375.288q-1.139.586-2.265,1.189l-.311.168q-1.328.715-2.634,1.449l-.088.048a146.856,146.856,0,0,0-15.188,9.757c-16.209,8.528-28.507,31.078-39.248,53.337.689,1.332,1.433,2.64,2.207,3.932A18.949,18.949,0,0,1,159.9,273.8l-3.5-2.449L96.629,230.718c6.047-7.12,12.69-13.846,19.267-18.408.5.243,1,.465,1.513.674l.006,0q.706.289,1.429.53c.05.017.1.03.149.046q.657.216,1.319.391l.19.045q.652.166,1.307.288c.057.011.114.019.171.029q.671.12,1.341.193l.127.012q.695.071,1.381.088h.083q.711.015,1.412-.032l.038,0q.72-.049,1.422-.163l.011,0a13.5,13.5,0,0,0,1.4-.306,11.622,11.622,0,0,0,6.983-5.214c6.031-9.738-3.059-11.31-3.059-11.31l-.023.044-.011.021-.071.134L133,197.8c-.525.96-2.822,4.845-6.26,6.261a6.805,6.805,0,0,1-6.691-.857c-7.7-5.122,4.028-12.147,4.028-12.147a15.346,15.346,0,0,0-5.9-1.043,12.648,12.648,0,0,0-3.293.537l-.095.029a11.979,11.979,0,0,0-1.457.558h0a11.882,11.882,0,0,0-2.564,1.611l-.088.073a11.55,11.55,0,0,0-1.038.978c-.017.019-.032.037-.048.055a11.488,11.488,0,0,0-1.631,2.266c-.027.05-.055.1-.081.149a10.927,10.927,0,0,0-.543,1.189c-.019.05-.035.1-.053.149a10.551,10.551,0,0,0-.38,1.249l0,.02a9.8,9.8,0,0,0-.2,1.262c-.008.073-.016.145-.021.219a9.506,9.506,0,0,0-.012,1.228c0,.071.012.141.018.212a9.035,9.035,0,0,0,.177,1.237l.007.035a8.911,8.911,0,0,0,.377,1.22c.029.076.056.151.087.225a8.962,8.962,0,0,0,.569,1.14c.041.07.087.137.131.206a9.447,9.447,0,0,0,.811,1.126,18.854,18.854,0,0,0,1.386,1.453q-.913,1.463-1.9,2.939c-.237.354-.492.711-.735,1.066-.43.631-.856,1.26-1.307,1.894-.335.472-.691.947-1.037,1.422-.379.519-.748,1.038-1.139,1.559s-.808,1.056-1.215,1.584c-.364.474-.721.948-1.1,1.424-.446.567-.911,1.138-1.37,1.708-.353.438-.7.874-1.058,1.314-.5.612-1.021,1.227-1.537,1.841-.337.4-.666.8-1.008,1.2-.558.655-1.133,1.314-1.707,1.972l-.729.837-3.787-2.574v40.685c5.205,11.159,40.09,34.027,63.847,44.424l.007,0c5.826,2.783,11.749,4.6,17.017,4.319,7.864-.42,16.064-5.433,23.006-11.2,5.473,4.192,9.268,6.568,9.268,6.568s1.756-3.567,4.137-9.013l3.067,30.346H327.1c-.191-1.755-1.788-16.2-4.363-34.077,8.663,7.785,19.734,16.057,28.392,16.842,6.193.561,13.213-1.661,19.585-4.669,19.664-8.633,31.538-30.251,40.321-42.146.095.056.192.122.285.17,6.938,3.615,8.76-3.853,8.3-7.56C419.257,258.325,407.562,244.562,403.029,239.325Z" transform="translate(6.378 7.456)" fill="#514c4d" opacity="0.51" style="mix-blend-mode: multiply;isolation: isolate"/>
    <path id="Path_23293" data-name="Path 23293" d="M386.973,282.744c-.794,0-1.584.025-2.373.061h-.055a52.2,52.2,0,0,0-7.669.935l-8.882,1.084q-1.9.166-3.775.461l-.219.027.012.009c-24.711,4.043-44.84,25.2-46.651,50.716a49.745,49.745,0,0,0,1.7,17.033h76.935a12.942,12.942,0,0,0,8.169-4.673,11.413,11.413,0,0,0,3.119-7.8V287.115A48.5,48.5,0,0,0,386.973,282.744Z" transform="translate(35.078 26.893)" fill="#514c4d" opacity="0.51" style="mix-blend-mode: multiply;isolation: isolate"/>
    <path id="Path_23294" data-name="Path 23294" d="M253.759,86.978c-8.941-10.521-27.729-.807-39.564,5.766-10.924,6.068-11.75,13.743-2.139,34.2l54.835-22.048S265.384,100.657,253.759,86.978Z" transform="translate(20.914 1.513)" fill="#9c3587"/>
    <path id="Path_23295" data-name="Path 23295" d="M218.581,89.458c-1.538.812-3.01,1.619-4.386,2.383-10.924,6.068-11.75,13.743-2.139,34.2l37.157-14.94C233.686,109.775,221.251,100.882,218.581,89.458Z" transform="translate(20.914 2.416)" fill="#653780"/>
    <path id="Path_23296" data-name="Path 23296" d="M236.428,97.977c-16.815,1.182-25.362,26.64-25.362,26.64s4.374,18.017,18.37,30.327l4.284-1.486S253.242,96.8,236.428,97.977Z" transform="translate(21.633 3.492)" fill="#6d2c25"/>
    <path id="Path_23297" data-name="Path 23297" d="M324.487,231.053s11.035,13.485,15.032,15.37,18.267-7.782,18.267-7.782l11.8,38.457s-25.857,23.13-42.569,21.283-38.262-38.033-38.262-38.033Z" transform="translate(31.472 20.347)" fill="#e79b69"/>
    <path id="Path_23298" data-name="Path 23298" d="M172.52,234.58s-7.286,12.694-11.887,14.446-20.1-16.928-20.1-16.928l-15.517,35.62s23.2,32.772,42.359,31.481,44.751-36.065,44.751-36.065Z" transform="translate(10.736 20.48)" fill="#e79b69"/>
    <path id="Path_23299" data-name="Path 23299" d="M283.564,177.27l5.584,105.385c33.857-2.821,49.844-37.618,49.844-37.618S319.712,212.12,283.564,177.27Z" transform="translate(30.814 13.536)" fill="#eddba2"/>
    <path id="Path_23300" data-name="Path 23300" d="M283.7,179.921l5.425,102.4a51.584,51.584,0,0,0,20.4-6.146c2.16-11.652,2.257-25.972-.22-41.144C305.179,209.7,295.007,188.873,283.7,179.921Z" transform="translate(30.832 13.872)" fill="#d8c387"/>
    <path id="Path_23301" data-name="Path 23301" d="M195.314,329.4H312.137s3.557-102.511-4.438-129.313S263.933,158.5,255.974,157.3c-15.517-2.35-56.428,26.8-61.6,35.268s3.762,77.587,3.762,77.587Z" transform="translate(19.315 10.99)" fill="#9c3587"/>
    <path id="Path_23302" data-name="Path 23302" d="M312.575,249.645c-.669,71.009-22.983,74.045-50.434,74.045-27.871,0-50.466-3.078-50.466-77.31,0-28.527,3.346-54.957,9.037-76.715-12.578,7.97-23.792,17.15-26.339,21.318-5.172,8.463,3.762,77.587,3.762,77.587l-2.822,59.25H312.137S313.566,286.631,312.575,249.645Z" transform="translate(19.315 12.573)" fill="#653780"/>
    <path id="Path_23303" data-name="Path 23303" d="M219.96,326.658c3.258-15.823,5.174-35.036,5.174-55.77,0-42.4-7.988-78.486-19.155-92.05-5.808,4.529-10.14,8.585-11.6,10.982-5.172,8.463,3.762,77.587,3.762,77.587l-2.822,59.25Z" transform="translate(19.315 13.735)" fill="#653780"/>
    <path id="Path_23304" data-name="Path 23304" d="M159.968,245.983c8.934,31.034,35.738,53.958,35.738,53.958s23.365-44.214,25.392-66.3c3.526-38.441-13.924-52.7-13.924-52.7C189.827,191.436,174.119,218.875,159.968,245.983Z" transform="translate(15.162 14.001)" fill="#eddba2"/>
    <path id="Path_23305" data-name="Path 23305" d="M187.841,279.589c-10.816-2.929-13.356-28.3-5.675-56.659,4.094-15.119,10.267-28.036,16.777-36.36-14.119,13-27.1,35.948-38.975,58.7,8.934,31.034,35.738,53.958,35.738,53.958s21.63-40.939,25.065-63.708C212.943,262.851,198.4,282.448,187.841,279.589Z" transform="translate(15.162 14.714)" fill="#d8c387"/>
    <path id="Path_23306" data-name="Path 23306" d="M202.782,180.942a52.224,52.224,0,0,0-8.128,6.246,66.3,66.3,0,0,0,16.387,5.635C207.126,184.493,202.782,180.942,202.782,180.942Z" transform="translate(19.555 14.001)" fill="#d8c387"/>
    <path id="Path_23307" data-name="Path 23307" d="M333.765,247.514c-6.113,19.28-9.51,35.687,8.828,46.5,22.211-11.209,46.474-36.443,51.651-54.236L375.479,219.4Z" transform="translate(36.555 18.871)" fill="#edb984"/>
    <path id="Path_23308" data-name="Path 23308" d="M374.484,219.4l-12.792,8.622c3.987-.515,4.935,2.045,7.322,4.166,7.8,6.934,4.388,24.4-10.641,41.308-6.933,7.8-14.6,13.689-21.618,17.125a35.862,35.862,0,0,0,4.842,3.4c22.211-11.209,46.474-36.443,51.651-54.236Z" transform="translate(37.55 18.871)" fill="#e79b69"/>
    <path id="Path_23309" data-name="Path 23309" d="M164.622,249.679c17.4,18.862,9.473,36.978-11.039,42.933-21.7-12.636-40.052-40.224-43.308-53.712l19.778-22.766Z" transform="translate(8.869 18.458)" fill="#edb984"/>
    <path id="Path_23310" data-name="Path 23310" d="M164.622,247.263l-3.057-2.965c3.63,13.742,2.336,25.133-4.421,29-10.153,5.818-28.729-7.519-41.491-29.791-1.589-2.773-3.012-5.553-4.267-8.308l-1.112,1.28c3.256,13.488,21.137,44.43,42.838,57.066C173.626,287.6,182.02,266.126,164.622,247.263Z" transform="translate(8.869 20.873)" fill="#e79b69"/>
    <rect id="Rectangle_4039" data-name="Rectangle 4039" width="16.885" height="9.21" rx="2.553" transform="translate(83.749 327.294)" fill="#eddba2"/>
    <rect id="Rectangle_4040" data-name="Rectangle 4040" width="8.168" height="9.21" rx="2.553" transform="translate(88.913 327.412)" fill="#f4eedf"/>
    <path id="Path_23311" data-name="Path 23311" d="M459.908,261.431V254.7l-5.817-1.19a16.458,16.458,0,0,0-1.441-3.493l3.268-4.949-4.76-4.759-4.948,3.267a16.486,16.486,0,0,0-3.494-1.44l-1.19-5.818H434.8l-1.19,5.818a16.454,16.454,0,0,0-3.493,1.44l-4.949-3.267-4.759,4.759,3.267,4.949a16.516,16.516,0,0,0-1.441,3.493l-5.816,1.19v6.731l5.816,1.19a16.55,16.55,0,0,0,1.441,3.494l-3.267,4.948,4.759,4.76,4.949-3.268a16.463,16.463,0,0,0,3.493,1.441l1.19,5.817h6.731l1.19-5.817a16.434,16.434,0,0,0,3.494-1.441l4.948,3.268,4.76-4.76-3.268-4.948a16.493,16.493,0,0,0,1.441-3.494Zm-21.746,8.975a12.34,12.34,0,1,1,12.34-12.34A12.34,12.34,0,0,1,438.161,270.405Z" transform="translate(47.639 21.014)" fill="#819699"/>
    <path id="Path_23312" data-name="Path 23312" d="M437.275,228.073v-5.532l-4.78-.978a13.555,13.555,0,0,0-1.184-2.871L434,214.625l-3.912-3.912-4.067,2.686a13.582,13.582,0,0,0-2.871-1.184l-.978-4.78h-5.532l-.978,4.78a13.555,13.555,0,0,0-2.871,1.184l-4.067-2.686-3.912,3.912,2.686,4.067a13.555,13.555,0,0,0-1.184,2.871l-4.78.978v5.532l4.78.978a13.556,13.556,0,0,0,1.184,2.871l-2.686,4.067,3.912,3.912,4.067-2.686a13.555,13.555,0,0,0,2.871,1.184l.978,4.78h5.532l.978-4.78a13.581,13.581,0,0,0,2.871-1.184l4.067,2.686L434,235.989l-2.686-4.067a13.556,13.556,0,0,0,1.184-2.871ZM419.4,233.164a7.857,7.857,0,1,1,7.857-7.857A7.857,7.857,0,0,1,419.4,233.164Z" transform="translate(45.754 17.356)" fill="#819699"/>
    <g id="Group_11796" data-name="Group 11796" transform="translate(407.961 217.521)">
      <g id="Group_11795" data-name="Group 11795">
        <path id="Path_23313" data-name="Path 23313" d="M387.917,201.284a57.9,57.9,0,0,0-19.751,19.346,10.318,10.318,0,0,0,1.905,13.1l4.4,4.043c3.224,2.963,11.2,5.576,16.631,3.113,5.7-2.584,9.027-10.709,11.581-15.282C409.378,213.614,392.373,198.664,387.917,201.284Z" transform="translate(-366.627 -200.982)" fill="#e79b69"/>
      </g>
    </g>
    <path id="Path_23314" data-name="Path 23314" d="M372.474,200.822,383.767,212.1l-1.711,11.947-16.915-13.427Z" transform="translate(41.145 16.519)" fill="#e88d3a"/>
    <path id="Path_23315" data-name="Path 23315" d="M366.067,218.146s13.351,22.825,21.04,24.641,8.662-7.607,7.723-11.8S372.751,209.3,372.751,209.3Z" transform="translate(41.262 17.593)" fill="#eddba2"/>
    <path id="Path_23316" data-name="Path 23316" d="M253.944,157.3c-9.973-1.511-30.425,9.99-45.147,20.65,15.939,22.189,19.209,50.564,18.906,69.02a6.775,6.775,0,0,0,6.715,6.871l56.359.63a6.785,6.785,0,0,0,6.856-6.345c.883-13.957,1.8-47.7-7.567-71.138C276.563,164.808,259.2,158.095,253.944,157.3Z" transform="translate(21.346 10.99)" fill="#eddba2"/>
    <path id="Path_23317" data-name="Path 23317" d="M287.837,175.2c-3.37-3.039-6.6-5-4.695-3.285,9.369,23.439,8.451,57.18,7.566,71.137a6.785,6.785,0,0,1-6.856,6.345l-56.359-.63a6.659,6.659,0,0,1-1.1-.123,6.772,6.772,0,0,0,5.793,3.409l56.359.63a6.785,6.785,0,0,0,6.856-6.345C296.287,232.38,297.206,198.639,287.837,175.2Z" transform="translate(23.575 12.777)" fill="#d8c387"/>
    <g id="Group_11797" data-name="Group 11797" transform="translate(230.143 168.154)">
      <path id="Path_23318" data-name="Path 23318" d="M253.944,157.3c-9.973-1.511-30.424,9.99-45.147,20.65a89.961,89.961,0,0,1,10.519,19.546,135.68,135.68,0,0,0,25.228.492c19.8-1.4,37.133-6.632,48.039-13.626-.745-2.539-1.574-5.014-2.517-7.375C276.563,164.808,259.2,158.095,253.944,157.3Z" transform="translate(-208.797 -157.164)" fill="#d8c387"/>
    </g>
    <path id="Path_23319" data-name="Path 23319" d="M226.748,168.14l.941-38.795,27.979-.234,7.524,35.267C260.84,183.187,234.977,186.478,226.748,168.14Z" transform="translate(23.619 7.437)" fill="#d27558"/>
    <path id="Path_23320" data-name="Path 23320" d="M221.322,168.046l5.643-8.464s18.912,15.595,26.1,13.872c4.678-1.121,11.05-15.753,11.05-15.753l7.759,6.583-.28,19.617-15.961-2.19-11.893,10.015Z" transform="translate(22.932 11.058)" fill="#f4e4b8"/>
    <path id="Path_23321" data-name="Path 23321" d="M223.556,115.177c.506,39.428,19.383,68.934,19.383,68.934s18.762,3.023,32.71-1.531,17.835-19.8,17.835-19.8-15.113-24.048-16.064-34.729-1.11-31.09-11.631-34.57S223.232,89.813,223.556,115.177Z" transform="translate(23.215 2.715)" fill="#84392d"/>
    <path id="Path_23322" data-name="Path 23322" d="M273.969,107.744c.388,0,.771.023,1.156.034-1.487-6.75-4.151-12.585-9.336-14.3-10.523-3.48-42.556-3.666-42.232,21.7a138.358,138.358,0,0,0,5.84,37.415C232.078,127.327,251,107.744,273.969,107.744Z" transform="translate(23.215 2.715)" fill="#6d2c25"/>
    <path id="Path_23323" data-name="Path 23323" d="M226.468,124.533c-4.485-3.124-8.86-2.1-9.772,2.293s1.985,10.48,6.471,13.6,8.861,2.1,9.772-2.293S230.955,127.657,226.468,124.533Z" transform="translate(22.325 6.629)" fill="#edb984"/>
    <path id="Path_23324" data-name="Path 23324" d="M274.305,70.418c-24.883,1.4-55.891,31.28-63,58.035,11.31-19.664,50.524-34.423,64.666-20.933C275.972,107.521,299.187,69.022,274.305,70.418Z" transform="translate(21.664 0)" fill="#eddba2"/>
    <path id="Path_23325" data-name="Path 23325" d="M235.807,110.887s.443,21.671,4.339,26.339c3.965,4.749,33.175-2.481,33.407-5.99.224-3.389-2.662-21.971-3.436-25.01C267.18,94.69,236.026,100.757,235.807,110.887Z" transform="translate(24.766 3.745)" fill="#edb984"/>
    <path id="Path_23326" data-name="Path 23326" d="M267.523,109.53c1.1,0,2.186.043,3.264.107-.278-1.583-.517-2.81-.67-3.413-2.936-11.535-34.091-5.468-34.31,4.662,0,0,.09,4.351.539,9.571C243.873,113.773,255.043,109.53,267.523,109.53Z" transform="translate(24.766 3.745)" fill="#e79b69"/>
    <path id="Path_23327" data-name="Path 23327" d="M126.969,308.233c-2.455-2.149-50.961-4.912-50.961-4.912-3.992,14.122-6.447,59.559,1.534,84.426h74.6S153.314,331.284,126.969,308.233Zm-2.609,59.324s-5.869-41.077-5.633-52.344c7.276-.939,22.3,32.154,22.3,52.344Z" transform="translate(4.057 29.499)" fill="#ffbb56"/>
    <path id="Path_23328" data-name="Path 23328" d="M82.518,291.037,81.193,284.7l-5.712.025a15.821,15.821,0,0,0-2.044-3.006l2.1-5.3-5.418-3.544-4.016,4.051a15.81,15.81,0,0,0-3.573-.668l-2.266-5.243-6.338,1.325.025,5.712a15.782,15.782,0,0,0-3,2.044l-5.3-2.1L42.1,283.407l4.053,4.016A15.787,15.787,0,0,0,45.483,291l-5.243,2.266,1.325,6.337,5.712-.025a15.826,15.826,0,0,0,2.045,3.006l-2.1,5.3,5.418,3.544,4.016-4.051a15.878,15.878,0,0,0,3.573.669l2.266,5.243,6.338-1.326-.025-5.711a15.83,15.83,0,0,0,3-2.045l5.3,2.1,3.544-5.419-4.051-4.016a15.847,15.847,0,0,0,.668-3.573Zm-19.7,7.991a7.028,7.028,0,1,1,5.441-8.317A7.027,7.027,0,0,1,62.818,299.028Z" transform="translate(0 25.408)" fill="#819699"/>
    <path id="Path_23329" data-name="Path 23329" d="M148.1,349.922c2.786,23.346-4.725,30.205-23.246,30.205-18.494,0-35.309-15.6-44.249-45.668a87.194,87.194,0,0,1-3.639-31.083l-.955-.055c-3.992,14.122-6.447,59.559,1.534,84.426h74.6A178.463,178.463,0,0,0,148.1,349.922Z" transform="translate(4.057 29.499)" fill="#f89f5b"/>
    <path id="Path_23330" data-name="Path 23330" d="M109.619,311.813c-.312,12.576,7.491,58.424,7.491,58.424h22.161C139.271,347.7,129.021,311.813,109.619,311.813Zm10.014,54.669S113.764,325.4,114,314.138c7.276-.939,22.3,32.154,22.3,52.344Z" transform="translate(8.785 30.575)" fill="#eaad42"/>
    <path id="Path_23331" data-name="Path 23331" d="M111.63,331.378H76.421l2.817,32.157h35.208Z" transform="translate(4.582 33.052)" fill="#eddba2"/>
    <path id="Path_23332" data-name="Path 23332" d="M107.652,324.294H77.046l.612,4.225h30.606Z" transform="translate(4.661 32.155)" fill="#eddba2"/>
    <path id="Path_23333" data-name="Path 23333" d="M41.482,341.316l8.009,23.507,10.328-23.507L49.84,360.761Z" transform="translate(0.157 34.311)" fill="#c6a85c"/>
    <path id="Path_23334" data-name="Path 23334" d="M59.715,378.528l-9.887-19.4-8.45,19.4L49.8,362.48Z" transform="translate(0.144 36.567)" fill="#c6a85c"/>
    <path id="Path_23335" data-name="Path 23335" d="M224.982,127.666c-2.824-2.161-5.466-1.778-5.9.857s1.505,6.522,4.33,8.683,5.466,1.778,5.9-.856S227.807,129.827,224.982,127.666Z" transform="translate(22.641 7.077)" fill="#d27558"/>
    <path id="Path_23336" data-name="Path 23336" d="M227.2,132.5c-1.724-1.331-3.409-1-3.765.746s.751,4.236,2.474,5.567,3.409,1,3.765-.745S228.927,133.836,227.2,132.5Z" transform="translate(23.192 7.764)" fill="#edb984"/>
    <path id="Path_23337" data-name="Path 23337" d="M276.047,72.893c4.233-.237,7.048.7,8.848,2.385-1.407-3.2-4.591-5.2-10.589-4.86-24.883,1.4-55.891,31.28-63,58.035a36.177,36.177,0,0,1,5.026-6.64C227.079,97.8,253.967,74.133,276.047,72.893Z" transform="translate(21.664 0)" fill="#ddc685"/>
    <ellipse id="Ellipse_2308" data-name="Ellipse 2308" cx="3.521" cy="5.164" rx="3.521" ry="5.164" transform="translate(250.63 271.792)" fill="#f4e4b8"/>
    <path id="Path_23338" data-name="Path 23338" d="M287.983,253.414c0-2.853-1.576-5.165-3.521-5.165s-3.521,2.312-3.521,5.165,1.576,5.163,3.521,5.163S287.983,256.266,287.983,253.414Z" transform="translate(30.482 22.525)" fill="#f4e4b8"/>
    <g id="Group_11798" data-name="Group 11798" transform="translate(242.883 273.201)">
      <path id="Path_23339" data-name="Path 23339" d="M235.128,266.364H220.1v-1.878h15.023a4.386,4.386,0,0,0,4.383-4.38v-9.7h1.878v9.7A6.268,6.268,0,0,1,235.128,266.364Z" transform="translate(-220.105 -250.403)" fill="#5281a0"/>
    </g>
    <g id="Group_11799" data-name="Group 11799" transform="translate(305.789 273.201)">
      <path id="Path_23340" data-name="Path 23340" d="M288.459,266.364h-7.732c-2.639,0-4.787-2.808-4.787-6.258v-9.7h1.878v9.7c0,2.374,1.332,4.38,2.909,4.38h7.732a4.386,4.386,0,0,0,4.381-4.38v-8.138h1.878v8.138A6.266,6.266,0,0,1,288.459,266.364Z" transform="translate(-275.94 -250.403)" fill="#5281a0"/>
    </g>
    <g id="Group_11801" data-name="Group 11801" transform="translate(409.79 154.054)">
      <path id="Rectangle_4041" data-name="Rectangle 4041" d="M3.331,0h8.855a3.331,3.331,0,0,1,3.331,3.331v13.6a0,0,0,0,1,0,0H0a0,0,0,0,1,0,0V3.331A3.331,3.331,0,0,1,3.331,0Z" transform="translate(6.625 19.085) rotate(23.04)" fill="#b2ccce"/>
      <path id="Path_23341" data-name="Path 23341" d="M391.074,145.5l-2.007-.853-10.5,24.918,2.007.853Z" transform="translate(-366.944 -144.648)" fill="#b2ccce"/>
      <path id="Path_23342" data-name="Path 23342" d="M382.855,160.43a3.534,3.534,0,0,0-4.636,1.869l-1.636,3.844,6.506,2.768,1.636-3.844A3.536,3.536,0,0,0,382.855,160.43Z" transform="translate(-367.195 -142.686)" fill="#b2ccce"/>
      <path id="Path_23343" data-name="Path 23343" d="M384.937,166.061l-7.372-3.135a3.735,3.735,0,0,0-3.274.181c.094.187.157.377.258.562,3.006,5.5,8.547,8.258,12.376,6.165.107-.059.186-.151.287-.216A3.748,3.748,0,0,0,384.937,166.061Z" transform="translate(-367.486 -142.371)" fill="#d3eced"/>
      <g id="Group_11800" data-name="Group 11800" transform="translate(15.62)">
        <path id="Path_23344" data-name="Path 23344" d="M384.678,158.165l-1.5-2.065-1.066,2.529,1.5,2.065Z" transform="translate(-382.115 -143.198)" fill="#91aeaf"/>
        <path id="Path_23345" data-name="Path 23345" d="M386.364,154.163l-1.5-2.065-1.065,2.529,1.5,2.065Z" transform="translate(-381.902 -143.705)" fill="#91aeaf"/>
        <path id="Path_23346" data-name="Path 23346" d="M388.05,150.161l-1.5-2.065-1.065,2.529,1.5,2.065Z" transform="translate(-381.688 -144.212)" fill="#91aeaf"/>
        <path id="Path_23347" data-name="Path 23347" d="M389.737,146.088l-.725-1-1.035-.44-.8,1.9,1.5,2.065Z" transform="translate(-381.475 -144.648)" fill="#91aeaf"/>
      </g>
    </g>
    <path id="Path_23348" data-name="Path 23348" d="M390.939,176.063c-.106,6.577-12.454,36.365-17.223,47.631a8.226,8.226,0,0,1-10.421,4.5s-16.021-7.393-11.505-18.882c4.082-10.385,17.418-41.5,18.949-42.469C372.573,165.679,390.992,172.77,390.939,176.063Z" transform="translate(39.353 12.199)" fill="#f9eac0"/>
    <path id="Path_23349" data-name="Path 23349" d="M390.939,175.293c.01-.7-.818-1.573-2.141-2.5a95.672,95.672,0,0,1-4.139,12.5c-7.813,19.119-19.886,32.275-26.967,29.38-2.68-1.1-4.256-4.34-4.761-8.979-.43,1.059-.818,2.026-1.141,2.849-4.516,11.49,11.505,18.882,11.505,18.882a8.226,8.226,0,0,0,10.421-4.5C378.485,211.658,390.833,181.87,390.939,175.293Z" transform="translate(39.353 12.969)" fill="#eddba2"/>
    <g id="Group_11802" data-name="Group 11802" transform="translate(356.373 277.108)">
      <ellipse id="Ellipse_2309" data-name="Ellipse 2309" cx="56.56" cy="59.708" rx="56.56" ry="59.708" transform="matrix(0.681, -0.732, 0.732, 0.681, 0, 84.351)" fill="#4c4545"/>
      <path id="Path_23350" data-name="Path 23350" d="M405.46,274.764l-22.9,2.837,11.8,8.837Z" transform="translate(-313.022 -251.225)" fill="#4c4545"/>
      <path id="Path_23351" data-name="Path 23351" d="M395.951,380.931h14.976l-7.714-11.674Z" transform="translate(-311.326 -239.259)" fill="#4c4545"/>
      <ellipse id="Ellipse_2310" data-name="Ellipse 2310" cx="57.024" cy="60.299" rx="57.024" ry="60.299" transform="matrix(0.792, -0.611, 0.611, 0.792, 16.263, 69.673)" fill="#605757"/>
      <ellipse id="Ellipse_2311" data-name="Ellipse 2311" cx="41.307" cy="43.68" rx="41.307" ry="43.68" transform="translate(38.858 73.229) rotate(-37.655)" fill="#4c4545"/>
      <path id="Path_23352" data-name="Path 23352" d="M372.069,341.015a39.448,39.448,0,0,1,37.029-25.09c20.223,0,37.881,14.471,42.994,33.771a41.988,41.988,0,0,0,2.84-17.72c-1.258-23.643-21.148-42.81-44.426-42.81s-41.127,19.168-39.868,42.81A44.582,44.582,0,0,0,372.069,341.015Z" transform="translate(-314.539 -249.401)" fill="#3d3636"/>
      <ellipse id="Ellipse_2312" data-name="Ellipse 2312" cx="31.651" cy="33.413" rx="31.651" ry="33.413" transform="matrix(0.681, -0.732, 0.732, 0.681, 48.147, 84.032)" fill="#f89f5b"/>
      <path id="Path_23353" data-name="Path 23353" d="M432.738,331.208a29.554,29.554,0,0,0-29.195-27.631,25.933,25.933,0,0,0-26.2,27.631,29.555,29.555,0,0,0,29.195,27.632A25.934,25.934,0,0,0,432.738,331.208Z" transform="translate(-313.688 -247.576)" fill="#ffbb56"/>
      <path id="Path_23354" data-name="Path 23354" d="M456.469,332.134c-1.3-24.419-21.841-44.214-45.881-44.214s-42.475,19.8-41.176,44.214,21.842,44.214,45.882,44.214S457.768,356.553,456.469,332.134Zm-41.295,41.973c-22.822,0-42.323-18.792-43.557-41.973s16.268-41.973,39.09-41.973,42.323,18.791,43.557,41.973S438,374.107,415.174,374.107Z" transform="translate(-314.695 -249.559)" fill="#ffbb56"/>
      <path id="Path_23355" data-name="Path 23355" d="M407.771,328.58a4.544,4.544,0,0,0-4.488-4.247,3.987,3.987,0,0,0-4.028,4.247,4.543,4.543,0,0,0,4.489,4.247A3.985,3.985,0,0,0,407.771,328.58Z" transform="translate(-310.908 -244.948)" fill="#3d3636"/>
      <path id="Path_23356" data-name="Path 23356" d="M401.966,303.943a2.705,2.705,0,0,0-2.673-2.529,2.373,2.373,0,0,0-2.4,2.529,2.705,2.705,0,0,0,2.673,2.53A2.374,2.374,0,0,0,401.966,303.943Z" transform="translate(-311.207 -247.85)" fill="#4c4545"/>
      <path id="Path_23357" data-name="Path 23357" d="M412.661,353.806a2.706,2.706,0,0,0-2.674-2.53,2.376,2.376,0,0,0-2.4,2.53,2.708,2.708,0,0,0,2.673,2.53A2.375,2.375,0,0,0,412.661,353.806Z" transform="translate(-309.853 -241.536)" fill="#4c4545"/>
      <path id="Path_23358" data-name="Path 23358" d="M430.717,321.166a2.706,2.706,0,0,0-2.673-2.53,2.376,2.376,0,0,0-2.4,2.53,2.708,2.708,0,0,0,2.675,2.53A2.374,2.374,0,0,0,430.717,321.166Z" transform="translate(-307.566 -245.669)" fill="#4c4545"/>
      <path id="Path_23359" data-name="Path 23359" d="M382.933,335a2.706,2.706,0,0,0-2.673-2.53,2.375,2.375,0,0,0-2.4,2.53,2.708,2.708,0,0,0,2.673,2.53A2.375,2.375,0,0,0,382.933,335Z" transform="translate(-313.617 -243.918)" fill="#4c4545"/>
      <path id="Path_23360" data-name="Path 23360" d="M386.683,314.994a2.705,2.705,0,0,0-2.673-2.529,2.374,2.374,0,0,0-2.4,2.529,2.707,2.707,0,0,0,2.675,2.53A2.374,2.374,0,0,0,386.683,314.994Z" transform="translate(-313.142 -246.451)" fill="#4c4545"/>
      <path id="Path_23361" data-name="Path 23361" d="M419.323,307.355a2.706,2.706,0,0,0-2.673-2.53,2.376,2.376,0,0,0-2.4,2.53,2.708,2.708,0,0,0,2.675,2.53A2.375,2.375,0,0,0,419.323,307.355Z" transform="translate(-309.009 -247.418)" fill="#4c4545"/>
      <path id="Path_23362" data-name="Path 23362" d="M428.629,342.079a2.706,2.706,0,0,0-2.674-2.53,2.375,2.375,0,0,0-2.4,2.529,2.706,2.706,0,0,0,2.673,2.53A2.374,2.374,0,0,0,428.629,342.079Z" transform="translate(-307.831 -243.021)" fill="#4c4545"/>
      <path id="Path_23363" data-name="Path 23363" d="M395.434,350.273a2.708,2.708,0,0,0-2.675-2.53,2.375,2.375,0,0,0-2.4,2.53,2.706,2.706,0,0,0,2.673,2.53A2.376,2.376,0,0,0,395.434,350.273Z" transform="translate(-312.034 -241.983)" fill="#4c4545"/>
    </g>
    <path id="Path_23364" data-name="Path 23364" d="M97.373,214.467c-5.252-3.229-5.308-5.736-4.368-8.27.932-2.511,2.5-4.118,7.7-1.05,5.33,3.141,9.029,7.868,8.138,10.514C107.945,218.331,102.753,217.774,97.373,214.467Z" transform="translate(6.623 16.854)" fill="#e79b69"/>
    <path id="Path_23365" data-name="Path 23365" d="M94.645,224.288c-5.6-3.654-5.683-6.271-4.713-8.862.961-2.568,2.6-4.158,8.153-.684,5.694,3.564,9.681,8.706,8.762,11.423C105.921,228.908,100.392,228.038,94.645,224.288Z" transform="translate(6.234 18.028)" fill="#e79b69"/>
    <path id="Path_23366" data-name="Path 23366" d="M90.813,234.121c-5.366-3.624-5.381-6.351-4.37-9.083,1-2.706,2.642-4.416,7.96-.975,5.451,3.528,9.2,8.75,8.237,11.608C101.67,238.558,96.315,237.837,90.813,234.121Z" transform="translate(5.786 19.219)" fill="#e79b69"/>
    <g id="Group_11805" data-name="Group 11805" transform="translate(98.751 224.88)">
      <g id="Group_11804" data-name="Group 11804">
        <g id="Group_11803" data-name="Group 11803">
          <path id="Path_23367" data-name="Path 23367" d="M106.818,207.521c4.307.4,5.009-.5,16.674,7.1a10.73,10.73,0,0,1,3.941,13.163l-8.255-3.614c-1.728,4.217.879,24.661-4.627,21.876-6.325-3.2-17.558-7.1-21.95-10.266C89.8,233.574,101.5,207.032,106.818,207.521Z" transform="translate(-92.174 -207.514)" fill="#e79b69"/>
        </g>
      </g>
      <path id="Path_23368" data-name="Path 23368" d="M122.5,209.564c5.152.08,8.987,8.093,8.651,17.545-.322,9.083,1.912,19.608-2.751,19.8-4.732.2-15.341-10.268-15.374-19.6C113,217.6,117.272,209.484,122.5,209.564Z" transform="translate(-89.533 -207.255)" fill="#edb984"/>
    </g>
    <g id="Group_11807" data-name="Group 11807" transform="translate(261.54 110.179)">
      <path id="Path_23369" data-name="Path 23369" d="M251.182,124.065c-.4-3.046-2.172-5.423-3.95-5.306s-2.893,2.681-2.49,5.728,2.172,5.423,3.95,5.308S251.585,127.112,251.182,124.065Z" transform="translate(-235.653 -104.053)" fill="#5a4949"/>
      <path id="Path_23370" data-name="Path 23370" d="M248.4,107.788l-10.655,4.482a1.806,1.806,0,0,0-.943,2.352l1.416,3.48a1.757,1.757,0,0,0,2.3.99l10.656-4.482a1.808,1.808,0,0,0,.942-2.354l-1.415-3.48A1.758,1.758,0,0,0,248.4,107.788Z" transform="translate(-236.665 -105.459)" fill="#84392d"/>
      <path id="Path_23371" data-name="Path 23371" d="M267.73,120.9c-.888-2.947-3.013-5.008-4.744-4.6s-2.417,3.123-1.528,6.07,3.011,5.007,4.744,4.6S268.619,123.842,267.73,120.9Z" transform="translate(-233.575 -104.371)" fill="#5a4949"/>
      <path id="Path_23372" data-name="Path 23372" d="M270.054,106.435l-9.744-.726a1.458,1.458,0,0,0-1.524,1.491l-.082,3.337a1.643,1.643,0,0,0,1.444,1.714l9.744.726a1.458,1.458,0,0,0,1.523-1.491l.082-3.337A1.643,1.643,0,0,0,270.054,106.435Z" transform="translate(-233.875 -105.705)" fill="#84392d"/>
      <path id="Path_23373" data-name="Path 23373" d="M257.982,120.778c3.88,6.755,5.406,11.105,2.832,12.857-1.607,1.1-4.131.925-6.162.532l-.03.136s6.375,2.293,9.209.646C266.636,133.32,263.8,128.489,257.982,120.778Z" transform="translate(-234.391 -103.797)" fill="#d27558"/>
      <g id="Group_11806" data-name="Group 11806" transform="translate(11.891 36.233)">
        <path id="Path_23374" data-name="Path 23374" d="M247.647,137.866l-.427,2.873c.3.142,7.437,3.488,17.275-.463l-.657-1.2A18.216,18.216,0,0,1,247.647,137.866Z" transform="translate(-247.22 -137.866)" fill="#59221e"/>
      </g>
      <path id="Path_23375" data-name="Path 23375" d="M260.1,146.225c-.055.848-1.759,1.42-3.8,1.277s-3.662-.946-3.608-1.795,1.759-1.42,3.806-1.276S260.152,145.377,260.1,146.225Z" transform="translate(-234.637 -100.804)" fill="#59221e"/>
    </g>
    <path id="Path_23376" data-name="Path 23376" d="M390.66,218.851c-4.694,3.334-4.12,5.57-2.5,7.745,1.608,2.154,3.652,3.448,8.337.262,4.8-3.263,7.483-7.8,5.884-10.072C400.769,214.487,395.466,215.437,390.66,218.851Z" transform="translate(43.912 18.381)" fill="#edb984"/>
    <path id="Path_23377" data-name="Path 23377" d="M385.329,210.473c-4.949,3.743-4.378,6.079-2.71,8.3,1.654,2.2,3.774,3.475,8.719-.1,5.072-3.671,7.958-8.6,6.31-10.936C395.986,205.373,390.409,206.631,385.329,210.473Z" transform="translate(43.207 17.243)" fill="#edb984"/>
    <path id="Path_23378" data-name="Path 23378" d="M378.851,202.072c-4.712,3.7-4.042,6.124-2.294,8.47,1.732,2.322,3.88,3.7,8.589.171,4.824-3.617,7.438-8.593,5.712-11.055C389.114,197.172,383.682,198.282,378.851,202.072Z" transform="translate(42.424 16.203)" fill="#edb984"/>
    <path id="Path_23379" data-name="Path 23379" d="M367.964,209.936c-4.48,2.182-11.56,15.607-7.436,23.711,3.964,7.787,19.713,6.033,15.961-2.112C372.581,223.048,372.515,207.72,367.964,209.936Z" transform="translate(40.403 17.646)" fill="#edb984"/>
    <path id="Path_23380" data-name="Path 23380" d="M385.993,204.864c-1.1-.319-6.131,2.206-14.713,3.317-6.021.78-9.08,8.755-5.106,14.412,4.956.5,22.181-7.407,23.552-10.212C391.224,209.315,388.381,205.56,385.993,204.864Z" transform="translate(41.049 17.027)" fill="#edb984"/>
    <g id="Group_11809" data-name="Group 11809" transform="translate(68.746 172.816)">
      <path id="Path_23381" data-name="Path 23381" d="M151.85,168.316s-4.964,13.866-12.473,8.881,3.63-15.348,3.63-15.348c-12.514-3.834-20.747,13.446-14.336,21.7a17.3,17.3,0,0,0,1.361,1.542c-9.165,20.67-24.611,43.853-42.287,67.927-3.3-1.2-10.113-2.341-18.152,9.164-3.3,4.716-4.288,8.636-4,11.639.362,3.817,5.982,4.215,6.93.5.329-1.291,1.309-2.865,3.4-4.745,7.412-6.674,12.568,2.777,12.568,2.777l-2.464,10.97a2.653,2.653,0,0,0,4.013,2.831c10.11-6.821,11.858-20.507,5.343-28.2,3.4-7.919,21.9-49.823,40.185-69.064,6.876,3.095,15.439,1.851,19.483-7.348C160.655,168.777,151.85,168.316,151.85,168.316Z" transform="translate(-65.542 -161.302)" fill="#b2ccce"/>
      <g id="Group_11808" data-name="Group 11808" transform="translate(0 0.225)">
        <path id="Path_23382" data-name="Path 23382" d="M127.405,185.068C118.444,205.28,103.47,227.9,86.284,251.4a12.428,12.428,0,0,1,1.834.509c17.676-24.074,33.122-47.257,42.287-67.927a17.3,17.3,0,0,1-1.361-1.542c-4.745-6.111-1.461-17.159,5.638-20.935-9.1,1.858-14.01,15.106-8.638,22.024A17.294,17.294,0,0,0,127.405,185.068Z" transform="translate(-62.915 -161.502)" fill="#91b4b5"/>
        <path id="Path_23383" data-name="Path 23383" d="M145.074,168.222a6.1,6.1,0,0,0-2.25-.694s-2.251,6.275-6.011,8.863C140.837,176.21,143.772,171.037,145.074,168.222Z" transform="translate(-56.516 -160.739)" fill="#91b4b5"/>
        <path id="Path_23384" data-name="Path 23384" d="M130.525,184.83c-.51.537-1.021,1.1-1.531,1.669a14.441,14.441,0,0,0,11.385-.5A15.743,15.743,0,0,1,130.525,184.83Z" transform="translate(-57.507 -158.548)" fill="#91b4b5"/>
        <path id="Path_23385" data-name="Path 23385" d="M87.33,270.454l2.463-10.97s-4.4-8.027-10.906-4.013c4.82-.514,7.906,5.1,7.906,5.1l-2.464,10.97a2.653,2.653,0,0,0,4.013,2.831c.347-.234.659-.495.986-.744A2.673,2.673,0,0,1,87.33,270.454Z" transform="translate(-63.852 -149.744)" fill="#91b4b5"/>
        <path id="Path_23386" data-name="Path 23386" d="M68.59,262.48c-.285-3,.708-6.923,4-11.639,3.248-4.648,6.29-7.21,8.987-8.56-3.337.711-7.468,3.182-11.987,9.649-3.3,4.716-4.288,8.636-4,11.639.3,3.2,4.295,3.986,6.138,1.97A3.352,3.352,0,0,1,68.59,262.48Z" transform="translate(-65.542 -151.272)" fill="#91b4b5"/>
      </g>
    </g>
    <path id="Path_23387" data-name="Path 23387" d="M99.6,223.919c5.635,1.911,5.722,4.308,4.749,6.957-.966,2.626-2.615,4.525-8.2,2.758-5.717-1.809-9.713-5.514-8.793-8.258C88.282,222.605,93.825,221.962,99.6,223.919Z" transform="translate(5.95 19.301)" fill="#edb984"/>
    <path id="Path_23388" data-name="Path 23388" d="M102.526,213.95c6.009,2.242,6.128,4.739,5.123,7.449-.995,2.686-2.726,4.588-8.684,2.508-6.111-2.133-10.418-6.171-9.469-8.991C90.453,212.068,96.358,211.65,102.526,213.95Z" transform="translate(6.221 17.994)" fill="#edb984"/>
    <path id="Path_23389" data-name="Path 23389" d="M106.423,203.679c5.762,2.267,5.808,4.883,4.761,7.739-1.038,2.83-2.767,4.846-8.476,2.744-5.85-2.153-9.9-6.322-8.912-9.288C94.8,201.878,100.517,201.356,106.423,203.679Z" transform="translate(6.763 16.697)" fill="#edb984"/>
    <path id="Path_23390" data-name="Path 23390" d="M118.049,198.873c1.025.581,2.761,6.154,8.1,13.334,3.745,5.038.006,13.1-7.061,14.253-3.932-3.319-10.42-21.851-9.315-24.905C110.978,198.217,115.815,197.6,118.049,198.873Z" transform="translate(8.79 16.194)" fill="#edb984"/>
  </g>
</svg>
