<svg id="Iconly_Bold_Bag_2" data-name="Iconly/Bold/Bag 2" xmlns="http://www.w3.org/2000/svg" width="45" height="48" viewBox="0 0 45 48">
  <g id="Bag_2" data-name="Bag 2" transform="translate(0 0)">
    <path id="Bag_2-2" data-name="Bag 2" d="M33.449,48h-21.9A11.8,11.8,0,0,1,0,36V22.752A11.807,11.807,0,0,1,11.551,10.729h.484a11.06,11.06,0,0,1,3.1-7.584A10.449,10.449,0,0,1,22.522,0a10.176,10.176,0,0,1,7.344,3.141,11.018,11.018,0,0,1,3.1,7.588h.484A11.807,11.807,0,0,1,45,22.752V36A11.8,11.8,0,0,1,33.449,48Zm-2.17-34.416a1.769,1.769,0,0,0-1.733,1.8v2.784a1.734,1.734,0,1,0,3.466,0V15.384A1.769,1.769,0,0,0,31.279,13.584Zm-17.765,0a1.791,1.791,0,0,0-1.733,1.8v2.784a1.734,1.734,0,1,0,3.466,0V15.384A1.769,1.769,0,0,0,13.514,13.584ZM22.522,3.6a7.01,7.01,0,0,0-4.967,2.11A7.471,7.471,0,0,0,15.5,10.729h14A7.151,7.151,0,0,0,22.522,3.6Z" transform="translate(0 0)" fill="#ff7783"/>
  </g>
</svg>
