<svg id="Iconly_Bold_Lock" data-name="Iconly/Bold/Lock" xmlns="http://www.w3.org/2000/svg" width="20.63" height="24.271" viewBox="0 0 20.63 24.271">
  <g id="Lock">
    <path id="Lock-2" data-name="Lock" d="M15.451,24.271H5.18A5.13,5.13,0,0,1,0,19.2V13.213a5.054,5.054,0,0,1,3.613-4.8V6.549A6.64,6.64,0,0,1,10.3,0a6.766,6.766,0,0,1,4.756,1.917,6.426,6.426,0,0,1,1.964,4.631v1.86a5.054,5.054,0,0,1,3.613,4.8V19.2A5.129,5.129,0,0,1,15.451,24.271ZM10.309,13.815a1.062,1.062,0,0,0-1.073,1.05v2.677a1.079,1.079,0,0,0,2.157,0V14.865A1.069,1.069,0,0,0,10.309,13.815Zm.012-11.7a4.5,4.5,0,0,0-4.55,4.414V8.148h9.088v-1.6A4.494,4.494,0,0,0,10.321,2.11Z" fill="#ff7783"/>
  </g>
</svg>
