<svg xmlns="http://www.w3.org/2000/svg" width="24.271" height="21.844" viewBox="0 0 24.271 21.844">
  <g id="Message" transform="translate(0 0)">
    <path id="Message-2" data-name="Message" d="M18.129,21.844H6.14A6.141,6.141,0,0,1,0,15.715V6.128A6.141,6.141,0,0,1,6.14,0H18.129a6.178,6.178,0,0,1,4.345,1.8,6.082,6.082,0,0,1,1.8,4.331v9.587A6.142,6.142,0,0,1,18.129,21.844ZM4.9,6.366a.89.89,0,0,0-.649.273.927.927,0,0,0-.086,1.213l.159.157,5.521,4.309a3.8,3.8,0,0,0,2.367.825,3.859,3.859,0,0,0,2.377-.825L20.06,7.937l.1-.1a.939.939,0,0,0-.014-1.213,1.009,1.009,0,0,0-.641-.316h-.051a.922.922,0,0,0-.63.244l-5.472,4.369a1.9,1.9,0,0,1-1.209.437,1.932,1.932,0,0,1-1.218-.437L5.461,6.553A.944.944,0,0,0,4.9,6.366Z" fill="#ff7783"/>
  </g>
</svg>
