<svg xmlns="http://www.w3.org/2000/svg" width="584.418" height="544.021" viewBox="0 0 584.418 544.021">
  <g id="OBJECTS" transform="translate(-122.415 -53.857)">
    <g id="Group_11988" data-name="Group 11988">
      <path id="Path_24158" data-name="Path 24158" d="M324.669,597.878c91.246,0,165.669-3.35,165.669-7.457s-74.423-7.453-165.669-7.453S159,586.315,159,590.421,233.423,597.878,324.669,597.878Z" fill="#ffbb56" fill-rule="evenodd"/>
      <g id="Group_11980" data-name="Group 11980">
        <rect id="Rectangle_4147" data-name="Rectangle 4147" width="76.245" height="178.35" transform="translate(406.407 411.368)" fill="#005299"/>
        <rect id="Rectangle_4148" data-name="Rectangle 4148" width="51.684" height="6.037" transform="translate(419.831 428.737)" fill="#297fe4"/>
        <rect id="Rectangle_4149" data-name="Rectangle 4149" width="51.684" height="6.037" transform="translate(419.831 442.599)" fill="#a9c5f6"/>
        <path id="Path_24159" data-name="Path 24159" d="M462.982,469.03a5.084,5.084,0,1,0-5.331-5.076A5.218,5.218,0,0,0,462.982,469.03Z" fill="#fff" fill-rule="evenodd"/>
        <path id="Path_24160" data-name="Path 24160" d="M462.982,487.378a5.083,5.083,0,1,0-5.331-5.078A5.218,5.218,0,0,0,462.982,487.378Z" fill="#fff" fill-rule="evenodd"/>
      </g>
      <g id="Group_11981" data-name="Group 11981">
        <path id="Path_24161" data-name="Path 24161" d="M570.771,588.339l40.579-.1V568.909l-40.579.1Z" fill="#0f0f4b" fill-rule="evenodd"/>
        <path id="Path_24162" data-name="Path 24162" d="M550.752,590.837l80.621-.037a2.441,2.441,0,0,0,2.437-2.44v-3.226a2.439,2.439,0,0,0-2.442-2.438l-80.618.037a2.441,2.441,0,0,0-2.438,2.44V588.4A2.44,2.44,0,0,0,550.752,590.837Z" fill="#0f0f4b" fill-rule="evenodd"/>
        <path id="Path_24163" data-name="Path 24163" d="M476.484,426.507l230.349.762-.8,143.017-230.347-.762Z" fill="#0f0f4b" fill-rule="evenodd"/>
        <rect id="Rectangle_4150" data-name="Rectangle 4150" width="132.157" height="219.247" transform="translate(481.363 564.136) rotate(-89.811)" fill="#a9c5f6"/>
        <path id="Path_24164" data-name="Path 24164" d="M700.774,514.12l-.029,9.125c-14.4,14.16-32.326,29.856-24.644,41.535l-35.693-.113C656.433,554.978,674.475,540.229,700.774,514.12Z" fill="#e7ebf6" fill-rule="evenodd"/>
        <path id="Path_24165" data-name="Path 24165" d="M525.339,432.124l37.233.123c-24.348,16.8-54.032,48.395-81.032,78.127l.033-9.941C496.725,482.009,536.4,450.368,525.339,432.124Z" fill="#e7ebf6" fill-rule="evenodd"/>
        <path id="Path_24166" data-name="Path 24166" d="M567.848,432.265l75.916.25C601.088,443.321,535.3,508.964,517.7,564.257l-33.63-.113C526.536,521.048,569.991,457.665,567.848,432.265Z" fill="#e7ebf6" fill-rule="evenodd"/>
      </g>
      <path id="Path_24167" data-name="Path 24167" d="M233.862,534.772l-1.979,9.534c11.846-2.362,25.38,1.425,28.005,8.84h18.641l3.259-17.75Z" fill="#edbe9f" fill-rule="evenodd"/>
      <path id="Path_24168" data-name="Path 24168" d="M233.8,534.773l-1.249,6.416,48.026.666,1.186-6.459Z" fill="#e59878"/>
      <path id="Path_24169" data-name="Path 24169" d="M445.293,567.038c-9.957,6.158-29.825,5.988-42.888-.344l-44.845.051,3.7,22.822H464.021C461.519,582.1,454.84,574.019,445.293,567.038Z" fill="#717eee" fill-rule="evenodd"/>
      <path id="Path_24170" data-name="Path 24170" d="M352.207,535.415l4.059,22.52,27.024.164,8.515.037c4.2-6.426,12.015-9.1,16.741-8.727l-2.61-13.765Z" fill="#edbe9f" fill-rule="evenodd"/>
      <path id="Path_24171" data-name="Path 24171" d="M352.207,535.415l1.33,7.381,53.8.225-1.4-7.377Z" fill="#e59878"/>
      <path id="Path_24172" data-name="Path 24172" d="M356.268,557.939l1.289,8.806,44.848-.051c13.064,6.332,32.932,6.5,42.889.344-6.495-5.75-20.783-14.926-36.561-17.619-4.708-.453-12.691,2.213-16.938,8.73Z" fill="#fff" fill-rule="evenodd"/>
      <g id="Group_11982" data-name="Group 11982">
        <path id="Path_24173" data-name="Path 24173" d="M210.634,562.946c.227-.1.454-.213.682-.316C211.088,562.733,210.861,562.841,210.634,562.946Z" fill="#f8476b" fill-rule="evenodd"/>
        <path id="Path_24174" data-name="Path 24174" d="M213.287,561.778c.079-.584.2-1.138.319-1.691C213.473,560.657,213.364,561.224,213.287,561.778Z" fill="#f8476b" fill-rule="evenodd"/>
        <path id="Path_24175" data-name="Path 24175" d="M276.746,564.581l-24.629-.7c-12.737,11.31-35.812,7.681-42.287-.551-10.59,5.115-20.31,13.623-24.439,27.006l87.183.443,4.5-28.115Q276.915,563.6,276.746,564.581Z" fill="#717eee" fill-rule="evenodd"/>
      </g>
      <path id="Path_24176" data-name="Path 24176" d="M209.822,563.321q1.72-.825,3.465-1.543c3.213-23.529,41.961-21.74,46.6-8.632H278.6s-.771,5.193-1.849,11.435l-24.629-.7C239.375,575.2,216.285,571.564,209.822,563.321Z" fill="#fff" fill-rule="evenodd"/>
      <path id="Path_24177" data-name="Path 24177" d="M476.645,159.059l4.384.339,2.7-27.446,2.845-3.44-1.8-9.736-3.905-.246-3.714,9.477,2.2,3.537Z" fill="#297fe4" fill-rule="evenodd"/>
      <g id="Group_11983" data-name="Group 11983">
        <path id="Path_24178" data-name="Path 24178" d="M411.525,228.155l-.143.1.007.026Z" fill="#edbe9f" fill-rule="evenodd"/>
        <path id="Path_24179" data-name="Path 24179" d="M489.473,218.073c-1.612-6.161-17.906-13.02-18.708-15.7s-5.146-13.36-5.612-14.484-4.593-6.165-5.236-6.215c-5.26,2.5-11.5,7.757-10.876,19.285l-6.242,4.525,23.59,36.894,10.529-9.608C487.954,232.378,491.083,224.235,489.473,218.073Z" fill="#edbe9f" fill-rule="evenodd"/>
      </g>
      <path id="Path_24180" data-name="Path 24180" d="M418.7,221.607l23.5-17.068,28.029,43.835-59.53,47.645c-18.6,14.542-39.447,6.94-44.6-13.389l2.761-13.042S417.9,221.512,418.7,221.607Z" fill="#fff" fill-rule="evenodd"/>
      <path id="Path_24181" data-name="Path 24181" d="M363.277,210.083c17.685,2.987,24.2-20.38,31.747-9.414,7.062,10.262,13.649,52.779,17.093,69.212l-40.134-9.129Z" fill="#fff" stroke="#000" stroke-miterlimit="22.926" stroke-width="0.38" fill-rule="evenodd"/>
      <path id="Path_24182" data-name="Path 24182" d="M371.741,192.586h18.841c-9.191-16.612-23.918-32.343-44.208-39.891C359.067,162.256,366.779,176.593,371.741,192.586Z" fill="#fff" fill-rule="evenodd"/>
      <path id="Path_24183" data-name="Path 24183" d="M371.755,192.586h5.176c-5.179-15.359-13.1-28.959-25.813-37.935-1.421-.645-2.87-1.253-4.351-1.813l-.263-.039C359.119,162.361,366.81,176.645,371.755,192.586Z" fill="#dbdbdb" fill-rule="evenodd"/>
      <path id="Path_24184" data-name="Path 24184" d="M342.858,150.241c-26.978-4.423-49.971-4.655-69.492-1.555,25.865,48.4,10.548,87.277-3,124.238h25.7L326.5,262.26l3.89,8.081,52.708-3.219C378.667,230.978,378.667,173.107,342.858,150.241Z" fill="#ffbb56" fill-rule="evenodd"/>
      <path id="Path_24185" data-name="Path 24185" d="M263.156,280.313l5.438-14.5-3.8.433c-47.342,36.411-97.729,18.431-83.009-38,10.818-36.924,39.24-71.872,91.586-79.562C300.445,199.357,284,245,263.156,280.313Z" fill="#fff" fill-rule="evenodd"/>
      <path id="Path_24186" data-name="Path 24186" d="M263.27,290.255c-12.4,60.974-30.109,183.564-34.122,244.457l62.49.812a1271.692,1271.692,0,0,1,28.373-174.236c8.364,37.623,19.411,93.858,25.513,174.1l65.768.281c-11.266-75.2-20.19-177.283-32.062-245.412Z" fill="#ffbb56" fill-rule="evenodd"/>
      <path id="Path_24187" data-name="Path 24187" d="M322.162,371.122c2.832-16.264,5.454-35.979,8.739-55.59q-5.717,22.52-10.881,45.8C320.34,362.77,321.834,369.624,322.162,371.122Z" fill="#f89f5b" fill-rule="evenodd"/>
      <path id="Path_24188" data-name="Path 24188" d="M282.821,288.955c-1.92,13.518-11.84,24.362-24.814,29.03-.277,1.551-.556,3.129-.836,4.717,15.69-4.68,27.914-17.31,30.177-33.26.086-.6.156-1.207.211-1.8q-2.247-.49-4.494-.99Q282.985,287.8,282.821,288.955Z" fill="#f89f5b" fill-rule="evenodd"/>
      <path id="Path_24189" data-name="Path 24189" d="M263.269,290.255q-.473,2.32-.954,4.755H380.046c-.271-1.605-.543-3.185-.817-4.755Z" fill="#ff7783" fill-rule="evenodd"/>
      <path id="Path_24190" data-name="Path 24190" d="M286.226,535.454l5.412.07A1246.84,1246.84,0,0,1,313.6,390.286,1247.1,1247.1,0,0,0,286.226,535.454Z" fill="#f89f5b" fill-rule="evenodd"/>
      <path id="Path_24191" data-name="Path 24191" d="M517,590.778h17.779L466.031,290.255h59V272.924H125.8v17.332h65.363L122.415,590.778h17.78l68.747-300.523H448.252Z" fill="#0f0f4b" fill-rule="evenodd"/>
      <path id="Path_24192" data-name="Path 24192" d="M487.652,159.91l-1.263,13.309.027,0-5.072,53.794c-2.312,13.814-21.119,12.038-19.909-1.1l4.09-41.036,2.515-26.483Z" fill="#f8476b" fill-rule="evenodd"/>
      <path id="Path_24193" data-name="Path 24193" d="M464.036,199.821a15.056,15.056,0,0,1-4.536-4.091,13.208,13.208,0,0,1-2.845-9.28c-1.967,2.948-1.335,7.953,1.8,12.164a14.734,14.734,0,0,0,5.254,4.468Z" fill="#e59878" fill-rule="evenodd"/>
      <path id="Path_24194" data-name="Path 24194" d="M472.294,200.129c-2.16,1.606-5.274,1.377-8.2-.28l-.31,3.274c2.707,1.3,5.489,1.361,7.468-.111a6.113,6.113,0,0,0,2.3-4.228A5.37,5.37,0,0,1,472.294,200.129Z" fill="#ae2c55" fill-rule="evenodd"/>
      <path id="Path_24195" data-name="Path 24195" d="M481.569,223.969l-.083.87c-5.186.4-9.6-1.825-10.106-5.248-.486-3.282,2.782-6.55,7.528-7.8-3.379,1.569-5.494,4.245-5.1,6.928.429,2.892,3.644,4.929,7.758,5.25Zm-2.36-12.313c-3.923-.627-6.878-2.737-7.3-5.621-.5-3.394,2.651-6.774,7.372-8.3-3.084-.87-5.312-2.74-5.744-5.213-.653-3.737,3.019-7.572,8.433-9.107-4.657-.37-8.294-2.681-8.78-5.957-.544-3.685,3.081-7.353,8.372-8.806-3.926,1.771-6.4,4.848-5.94,7.934.484,3.277,4.124,5.587,8.779,5.958-5.413,1.535-9.085,5.37-8.433,9.106.431,2.474,2.659,4.344,5.745,5.214-4.721,1.528-7.875,4.909-7.373,8.3.432,2.921,3.456,5.048,7.455,5.644A14.864,14.864,0,0,0,479.209,211.656Z" fill="#ae2c55" fill-rule="evenodd"/>
      <path id="Path_24196" data-name="Path 24196" d="M483.109,210.52c5.654-.837,10.676,1.457,11.218,5.123s-3.6,7.316-9.253,8.153-10.677-1.458-11.219-5.123S477.455,211.356,483.109,210.52Z" fill="#edbe9f" fill-rule="evenodd"/>
      <path id="Path_24197" data-name="Path 24197" d="M483.109,210.52a14.276,14.276,0,0,1,6.382.432,17.652,17.652,0,0,1-3.634.937,16.555,16.555,0,0,1-6.568-.3A15.344,15.344,0,0,1,483.109,210.52Z" fill="#e59878" fill-rule="evenodd"/>
      <path id="Path_24198" data-name="Path 24198" d="M484.54,196.166c6.207-.919,11.72,1.6,12.316,5.625s-3.952,8.032-10.159,8.951-11.721-1.6-12.317-5.625S478.333,197.084,484.54,196.166Z" fill="#edbe9f" fill-rule="evenodd"/>
      <path id="Path_24199" data-name="Path 24199" d="M488.888,197.083a16.239,16.239,0,0,1-7.118-.273,15.453,15.453,0,0,0-2.481,1.041,15.713,15.713,0,0,0,8.12.809,16.99,16.99,0,0,0,5.2-1.622,11.845,11.845,0,0,0-1.444-.506A18.105,18.105,0,0,1,488.888,197.083Z" fill="#e59878" fill-rule="evenodd"/>
      <path id="Path_24200" data-name="Path 24200" d="M486.269,182.078c6.389-1.116,12.155,1.339,12.88,5.482s-3.871,8.408-10.261,9.523-12.156-1.338-12.88-5.482S479.877,183.194,486.269,182.078Z" fill="#edbe9f" fill-rule="evenodd"/>
      <path id="Path_24201" data-name="Path 24201" d="M488.395,182.353a17.577,17.577,0,0,1-3.9.138,16.978,16.978,0,0,0-2.552.929,16.757,16.757,0,0,0,6,.159,17.179,17.179,0,0,0,4.76-1.411,15.254,15.254,0,0,0-2.123-.294A17.708,17.708,0,0,1,488.395,182.353Z" fill="#e59878" fill-rule="evenodd"/>
      <path id="Path_24202" data-name="Path 24202" d="M487.144,165.28l-.182,1.912c-.265.027-.529.052-.8.091-6.416.949-11.118,5.093-10.5,9.254s6.315,6.765,12.732,5.816c4.471-.662,8.1-2.876,9.691-5.563.007-.01.021-.015.027-.025C501.689,170.736,494,165.385,487.144,165.28Z" fill="#edbe9f" fill-rule="evenodd"/>
      <path id="Path_24203" data-name="Path 24203" d="M342.858,150.241c12.158,7.763,20.185,19.565,25.662,33.178l-65.98.335c-3.207-16.645-8.337-27-15.118-36.668C303.687,145.781,322.1,146.837,342.858,150.241Z" fill="#fff" fill-rule="evenodd"/>
      <path id="Path_24204" data-name="Path 24204" d="M329.064,75.159l0,0,.006,0q.2.177.39.359l.01.009.007.007.044.04.008.009.008.008.01.008.068.066a138.266,138.266,0,0,0-24.161,14.812c2.953,1.637,18.5,4.041,31.981.543l.026.172v0h0c.031.213.057.427.083.643h0v0c.026.215.048.431.068.646V92.5c.019.2.036.411.05.616l0,.034,0,.009v.007c.014.2.025.409.035.613l0,.03v.015c-16.067,4.059-34.459,1.206-37.97-.742A165.287,165.287,0,0,1,329.064,75.159Z" fill="#cacaca" fill-rule="evenodd"/>
      <path id="Path_24205" data-name="Path 24205" d="M369.528,69.383c4.819.842,5.961,6.748,4.633,11.128-1.745,5.773-9.8,10.385-17.955,12.568a109.633,109.633,0,0,1-3.291-10.824,20.854,20.854,0,0,0,1.714-2.27C357.915,75.115,363.178,68.526,369.528,69.383Z" fill="#0f0f4b" fill-rule="evenodd"/>
      <path id="Path_24206" data-name="Path 24206" d="M332.44,141.735c-17.4-4.715-25.711-10.613-24.825-19.82a13.039,13.039,0,0,1-1.716.216l-4.9,33.9c14.145,6.878,31.157,12.757,49.925,18.044a229.482,229.482,0,0,1-3.338-31.424A35.511,35.511,0,0,1,332.44,141.735Z" fill="#edbe9f" fill-rule="evenodd"/>
      <path id="Path_24207" data-name="Path 24207" d="M332.44,141.735c-17.4-4.715-25.711-10.613-24.825-19.82a13.039,13.039,0,0,1-1.716.216l-.84,5.809c2.005,6.6,10.144,12.418,23.305,17.824,7.047,2.865,13.8,3.515,19.49,2.328-.109-1.852-.192-3.64-.268-5.436A35.511,35.511,0,0,1,332.44,141.735Z" fill="#e59878" fill-rule="evenodd"/>
      <path id="Path_24208" data-name="Path 24208" d="M352.919,82.22c-7.112,8.239-19.951,10.569-30.567,10.6a13.459,13.459,0,0,1-6.719,14.055l-4.2,10.569c-2.583,11.948,3.238,19.17,21.008,24.29,16.717,4.158,36.062-5.6,32.167-23.633C362.163,106.836,355.834,94.433,352.919,82.22Z" fill="#edbe9f" fill-rule="evenodd"/>
      <path id="Path_24209" data-name="Path 24209" d="M322.349,92.821a13.3,13.3,0,0,1,.182,3.024c10.877-.35,23.183-2.812,31.359-9.912q-.536-1.853-.98-3.7C345.8,90.462,332.96,92.79,322.349,92.821Z" fill="#e59878" fill-rule="evenodd"/>
      <path id="Path_24210" data-name="Path 24210" d="M364.607,118.1a120.639,120.639,0,0,0-5.085-16.006c-3.948,4.9-10.945,6.72-18.951,2.652-9.2-4.786-13.342-5.619-19.042-4.535a13.48,13.48,0,0,0,.823-7.391c-8.184.026-15.036-1.306-16.895-2.337.311-.239.631-.475.947-.712-5.379,3.909-10.279,8.012-15.341,12.385-.044-.058-.088-.114-.132-.171a26.912,26.912,0,0,0,2.592,6.5,10.871,10.871,0,0,1,.559-1.732c.017-.039.029-.078.045-.116.092-.214.2-.42.3-.626.051-.1.1-.2.153-.3.1-.188.213-.369.326-.551.069-.11.138-.22.211-.328.114-.17.233-.336.356-.5.085-.112.172-.222.261-.331.125-.153.251-.305.384-.452.1-.112.208-.219.314-.327.133-.136.264-.273.4-.4.125-.116.257-.224.387-.334s.26-.229.4-.336c.261-.2.533-.395.812-.577.12-.078.246-.146.369-.219.182-.11.364-.219.553-.319.134-.071.271-.134.408-.2.188-.09.376-.179.568-.26.142-.059.285-.113.429-.167q.3-.113.6-.209c.145-.046.29-.09.437-.131.215-.059.431-.111.65-.159.142-.031.283-.063.426-.09.245-.044.494-.077.743-.107.124-.015.245-.035.369-.047.376-.034.756-.054,1.142-.054.32,0,.637.013.951.036.105.008.209.024.314.034.207.022.413.042.616.073.123.018.243.044.364.066.182.033.364.066.543.106.128.029.253.065.38.1.168.044.335.088.5.139.13.04.256.085.384.129.156.054.312.108.465.168.129.05.256.105.383.159.146.063.291.128.434.2.127.061.252.124.376.189s.273.145.407.222.245.143.365.217.254.161.378.245.238.163.355.248.232.173.346.263.232.182.344.277.21.185.313.279.223.2.331.308.186.192.277.289c.108.113.216.225.318.343.083.094.16.193.24.29.1.126.207.251.3.381.067.089.127.182.191.273.1.145.2.288.3.436.034.055.064.112.1.168a10.906,10.906,0,0,1,1.033,2.186,23.1,23.1,0,0,0-5.079,7.11,29.536,29.536,0,0,0-2.424,7.037,12.25,12.25,0,0,1-1.323.335c-.886,9.207,7.428,15.105,24.825,19.82C352.664,147.145,368.5,135.882,364.607,118.1Z" fill="#b26d48" fill-rule="evenodd"/>
      <path id="Path_24211" data-name="Path 24211" d="M305.13,99.615a11.839,11.839,0,0,1,11.311,7.818,23.1,23.1,0,0,0-5.079,7.11,29.536,29.536,0,0,0-2.424,7.037,12.469,12.469,0,0,1-3.808.592c-6.563,0-11.883-5.049-11.883-11.278S298.567,99.615,305.13,99.615Z" fill="#edbe9f" fill-rule="evenodd"/>
      <path id="Path_24212" data-name="Path 24212" d="M339.239,71.925c-22.7,9.11-34.879,18.745-48.176,30.233-6.845-8.722-9.868-14.888-3.165-26.639C302.2,53.293,327.44,42.191,339.239,71.925Z" fill="#f8476b" fill-rule="evenodd"/>
      <path id="Path_24213" data-name="Path 24213" d="M355.016,110.969c-1.767,15.687-21.59,13.594-20.643-1.387Z" fill="#fff" fill-rule="evenodd"/>
      <path id="Path_24214" data-name="Path 24214" d="M305.457,90.485c4.476,2.482,37.9,6.729,49.172-10.5,3.292-4.878,8.565-11.48,14.928-10.6-8.14-1.028-20.285.372-30.788,2.627C329.921,74.736,316.348,82.1,305.457,90.485Z" fill="#fc8ca5" fill-rule="evenodd"/>
      <g id="Group_11984" data-name="Group 11984">
        <path id="Path_24215" data-name="Path 24215" d="M338.127,100.53c1.9,0,3.448-1.9,3.448-4.234s-1.549-4.234-3.448-4.234-3.445,1.9-3.445,4.234S336.229,100.53,338.127,100.53Z" fill="#0f0f4b" fill-rule="evenodd"/>
        <path id="Path_24216" data-name="Path 24216" d="M349.864,97.541c1.525-.038,2.727-1.827,2.675-3.983s-1.34-3.885-2.865-3.848-2.726,1.826-2.674,3.982S348.339,97.577,349.864,97.541Z" fill="#0f0f4b" fill-rule="evenodd"/>
        <path id="Path_24217" data-name="Path 24217" d="M345.317,92.885s0,.264-.019.722a6.5,6.5,0,0,0,.243,1.807,5.223,5.223,0,0,0,1.218,2.143,11.56,11.56,0,0,0,2.277,1.822,15.73,15.73,0,0,1,2.527,1.861,2.374,2.374,0,0,1,.735,1.468,2.323,2.323,0,0,1-.412,1.382,5.108,5.108,0,0,1-.736.842c-.247.213-.46.4-.643.538-.375.272-.594.413-.594.413s.164-.209.462-.551c.147-.172.312-.393.5-.641a8.113,8.113,0,0,0,.519-.876,1.894,1.894,0,0,0,.175-1.024,1.783,1.783,0,0,0-.612-.935A23.428,23.428,0,0,0,348.5,100.2a9.99,9.99,0,0,1-2.4-2.086,5.37,5.37,0,0,1-.77-1.291,4.87,4.87,0,0,1-.339-1.3,5.094,5.094,0,0,1-.015-1.112c.043-.327.087-.611.135-.835C345.233,93.135,345.317,92.885,345.317,92.885Z" fill="#0f0f4b"/>
        <path id="Path_24218" data-name="Path 24218" d="M307.622,105.616a3.859,3.859,0,0,0-.559-.3c-.229-.1-.489-.217-.784-.312a8.208,8.208,0,0,0-.972-.234,5.63,5.63,0,0,0-1.128-.08,6.355,6.355,0,0,0-1.217.13,7.2,7.2,0,0,0-1.2.413,6.121,6.121,0,0,0-1.09.653,5.614,5.614,0,0,0-.9.833,5.862,5.862,0,0,0-.67.91,5.345,5.345,0,0,0-.449.895,4.3,4.3,0,0,0-.269.793,3.556,3.556,0,0,0-.136.626c-.049.351-.066.55-.066.55l.256-.488a10.279,10.279,0,0,1,.723-1.208,8.621,8.621,0,0,1,1.245-1.463l.394-.347c.148-.1.292-.2.434-.314.1-.062.194-.122.29-.183a4.219,4.219,0,0,0,.032.685c.026.28.054.585.084.906.057.314.144.636.22.971a4.761,4.761,0,0,0,.326,1,6.1,6.1,0,0,0,.44.993l.546.934c.211.287.444.551.654.813l.315.382c.121.108.24.213.354.316l.646.575a4.843,4.843,0,0,0,.6.417l.469.3.408.264-.382-.3-.436-.345a4.571,4.571,0,0,1-.547-.463c-.178-.193-.372-.4-.576-.621-.1-.11-.207-.221-.313-.337-.089-.129-.179-.262-.271-.4-.178-.273-.376-.544-.55-.834-.143-.306-.288-.618-.433-.931a5.589,5.589,0,0,1-.323-.966,4.33,4.33,0,0,1-.214-.958c-.041-.316-.094-.62-.119-.907,0-.284,0-.553,0-.8a3.38,3.38,0,0,1,.036-.69l.067-.518c.211-.081.425-.152.637-.223a8.192,8.192,0,0,1,1.04-.19,8.3,8.3,0,0,1,1.006-.056c.322,0,.629.042.918.051.285.04.546.077.777.111s.443.091.614.122l.542.1Z" fill="#0f0f4b"/>
      </g>
      <path id="Path_24219" data-name="Path 24219" d="M306.129,89.971q-.338.256-.672.514c1.859,1.031,8.713,2.365,16.9,2.339a13.384,13.384,0,0,1,.174,3.021c-9.315.3-17.577-.947-21.3-2.153C302.831,92.432,304.458,91.192,306.129,89.971Z" fill="#a45327" fill-rule="evenodd"/>
      <path id="Path_24220" data-name="Path 24220" d="M264.754,266.233c-10.193-8.885-14.086-22.637-12.913-33.936l29.07-14.057,13.478-.8,9.255,13.076C300.559,253.177,293.689,263.382,264.754,266.233Z" fill="#edbe9f" fill-rule="evenodd"/>
      <path id="Path_24221" data-name="Path 24221" d="M294.389,217.436l-13.478.8-5.618,2.717c-2.662,6.6-.007,13,9.669,12.945-.218.045,5.28-6.01,5.28-6.01a28.676,28.676,0,0,0,8.381-4.473Z" fill="#e59878" fill-rule="evenodd"/>
      <path id="Path_24222" data-name="Path 24222" d="M285.371,232.429c-17.92.1-11.794-21.929,7.688-26.407,12.939-1.985,17.173,13.423-2.408,20.4C290.651,226.419,285.154,232.475,285.371,232.429Z" fill="#edbe9f" fill-rule="evenodd"/>
      <path id="Path_24223" data-name="Path 24223" d="M292.513,225.7a21.528,21.528,0,0,0-2.846-4.769c-3.463-4.428-7.142-6.531-10.5-6.926-7.08,7.976-6.2,18.495,6.2,18.425-.217.046,5.28-6.01,5.28-6.01C291.3,226.189,291.917,225.948,292.513,225.7Z" fill="#e59878" fill-rule="evenodd"/>
      <path id="Path_24224" data-name="Path 24224" d="M215.315,217.417c11.6,7.813,27.226,10.795,42.046,11.366-12.289-.939-27.343-3.722-37.1-12.64C220.261,216.143,215.215,217.317,215.315,217.417Z" fill="#dbdbdb" fill-rule="evenodd"/>
      <path id="Path_24225" data-name="Path 24225" d="M252.141,233.214l.147-1.4,3.521-.818a18.764,18.764,0,0,1,2.661.838,13.976,13.976,0,0,1,1.278,1.823,8.534,8.534,0,0,1,.314,1.217,10.018,10.018,0,0,1-.272,1.465,28.142,28.142,0,0,1-2.536,2.075S252.121,233.234,252.141,233.214Z" fill="#edbe9f" fill-rule="evenodd"/>
      <path id="Path_24226" data-name="Path 24226" d="M268.748,238.94c-7.257-15.973,8.032-30.119,20.51-14.164,11.092,14.271-2.682,26.834-13.448,15.414C275.81,240.19,268.619,238.764,268.748,238.94Z" fill="#e59878" fill-rule="evenodd"/>
      <path id="Path_24227" data-name="Path 24227" d="M269.381,235.217c-7.256-15.973,8.033-30.119,20.511-14.164,11.092,14.272-1.649,33.652-13.448,15.414C276.444,236.467,269.252,235.041,269.381,235.217Z" fill="#e59878" fill-rule="evenodd"/>
      <path id="Path_24228" data-name="Path 24228" d="M270.433,218.178c-3.929,3.761-5.51,10.871-2.1,18.389-.129-.176,7.063,1.251,7.063,1.251a16.74,16.74,0,0,0,2.746,2.359,18.426,18.426,0,0,0,1.227-7.558C279.053,223.716,275.127,219.18,270.433,218.178Z" fill="#e59878" fill-rule="evenodd"/>
      <path id="Path_24229" data-name="Path 24229" d="M268.338,236.567c-7.256-15.973,8.032-30.118,20.511-14.164,11.092,14.272-2.683,26.834-13.448,15.415C275.4,237.818,268.209,236.391,268.338,236.567Z" fill="#edbe9f" fill-rule="evenodd"/>
      <path id="Path_24230" data-name="Path 24230" d="M255.327,231.056c5.467-16.669,25.331-16.167,23.616,4.924-1.634,18.357-22.59,15.842-20.057,1.888C258.886,237.868,255.352,230.84,255.327,231.056Z" fill="#e59878" fill-rule="evenodd"/>
      <path id="Path_24231" data-name="Path 24231" d="M251.84,232.4c3.483-17.194,24.563-20.6,25.325.545.52,18.423-19.68,18.4-18.794,4.244C258.371,237.191,251.84,232.185,251.84,232.4Z" fill="#edbe9f" fill-rule="evenodd"/>
      <path id="Path_24232" data-name="Path 24232" d="M471.749,186.619c3.683,4.945,3.927,10.993.545,13.51s-9.11.547-12.794-4.4-3.926-10.992-.544-13.509S468.066,181.673,471.749,186.619Z" fill="#edbe9f" fill-rule="evenodd"/>
      <g id="Group_11986" data-name="Group 11986">
        <path id="Path_24233" data-name="Path 24233" d="M293.379,272.929h-2.066l2.174-7.587H267.1l-2.9,7.593h29.174Z" fill="#fc8ca5" fill-rule="evenodd"/>
        <g id="Group_11985" data-name="Group 11985">
          <path id="Path_24234" data-name="Path 24234" d="M314.319,192.648H432.044l-23,80.281H291.313Z" fill="#ae2c55" fill-rule="evenodd"/>
          <path id="Path_24235" data-name="Path 24235" d="M321.18,192.648H438.906L415.9,272.929H298.175Z" fill="#f8476b" fill-rule="evenodd"/>
          <path id="Path_24236" data-name="Path 24236" d="M384.286,233.55c0,6.87-6.232,12.44-13.918,12.44s-13.92-5.57-13.92-12.44,6.232-12.44,13.92-12.44S384.286,226.68,384.286,233.55Z" fill="#fc8ca5" fill-rule="evenodd"/>
        </g>
      </g>
      <g id="Group_11987" data-name="Group 11987">
        <path id="Path_24237" data-name="Path 24237" d="M198.217,231.848a17.24,17.24,0,0,1,11.389,4.769,16.071,16.071,0,0,1,0,23.371,17.246,17.246,0,0,1-11.389,4.77v-7.379a9.84,9.84,0,0,0,6.292-2.689,8.761,8.761,0,0,0,0-12.774,9.836,9.836,0,0,0-6.292-2.69Z" fill="#0f0f4b" fill-rule="evenodd"/>
        <path id="Rectangle_4151" data-name="Rectangle 4151" d="M4.106,0H41.582a4.107,4.107,0,0,1,4.107,4.107V46.459a4.106,4.106,0,0,1-4.106,4.106H4.107A4.107,4.107,0,0,1,0,46.458V4.106A4.106,4.106,0,0,1,4.106,0Z" transform="translate(152.528 222.378)" fill="#f8476b"/>
      </g>
    </g>
  </g>
</svg>
