<svg xmlns="http://www.w3.org/2000/svg" width="45" height="37.309" viewBox="0 0 45 37.309">
  <g id="tools-icon" transform="translate(0)">
    <path id="Path_23276" data-name="Path 23276" d="M23.586,4.447a8.281,8.281,0,0,0-3.031-.581,5.285,5.285,0,0,0-3.866,1.5L7.971,14.072l.907.915L5.568,18.321,0,12.744,3.309,9.434l1.026,1,8.671-8.663A5.393,5.393,0,0,1,16.848,0Q20.3,0,23.586,4.447ZM36.817,1.98a8.171,8.171,0,0,1,2.7.458L37.37,4.767c-4.887,5.287.628,8.346,5.488,4.716l1.875-1.4a8.186,8.186,0,0,1-11.969,9.19L28.79,21.493,40.013,32.234l-5.075,5.075Q29.63,31.773,24.325,26.234l-6.968,7.4a3.05,3.05,0,1,1-5-3.459l0,0,.027-.023a3.069,3.069,0,0,1,.781-.669l7.837-6.719L11.331,12.636l4.01-4.009C19.06,12.2,22.08,15.065,25.8,18.633l4.345-3.725A8.184,8.184,0,0,1,36.817,1.98ZM10.485,3.795,6.5,7.78l-.764-.764L9.721,3.031l.764.764Z" transform="translate(0)" fill="#ff7783" fill-rule="evenodd"/>
  </g>
</svg>
